<svg id="visual" viewBox="0 0 1900 900" width="1900" height="900" xmlns="http://www.w3.org/2000/svg" xmlns:xlink="http://www.w3.org/1999/xlink" version="1.1"><path d="M0 695L11.2 700.7C22.3 706.3 44.7 717.7 66.8 731.5C89 745.3 111 761.7 133.2 734.2C155.3 706.7 177.7 635.3 200 630.2C222.3 625 244.7 686 266.8 700.5C289 715 311 683 333.2 653.8C355.3 624.7 377.7 598.3 400 605C422.3 611.7 444.7 651.3 466.8 684C489 716.7 511 742.3 533.2 743.7C555.3 745 577.7 722 600 694.2C622.3 666.3 644.7 633.7 666.8 615.2C689 596.7 711 592.3 733.2 611.5C755.3 630.7 777.7 673.3 800 700.3C822.3 727.3 844.7 738.7 866.8 722.5C889 706.3 911 662.7 933.2 633.2C955.3 603.7 977.7 588.3 1000 602.7C1022.3 617 1044.7 661 1066.8 672.8C1089 684.7 1111 664.3 1133.2 664C1155.3 663.7 1177.7 683.3 1200 706.7C1222.3 730 1244.7 757 1266.8 765.8C1289 774.7 1311 765.3 1333.2 753.3C1355.3 741.3 1377.7 726.7 1388.8 719.3L1400 712L1400 901L1388.8 901C1377.7 901 1355.3 901 1333.2 901C1311 901 1289 901 1266.8 901C1244.7 901 1222.3 901 1200 901C1177.7 901 1155.3 901 1133.2 901C1111 901 1089 901 1066.8 901C1044.7 901 1022.3 901 1000 901C977.7 901 955.3 901 933.2 901C911 901 889 901 866.8 901C844.7 901 822.3 901 800 901C777.7 901 755.3 901 733.2 901C711 901 689 901 666.8 901C644.7 901 622.3 901 600 901C577.7 901 555.3 901 533.2 901C511 901 489 901 466.8 901C444.7 901 422.3 901 400 901C377.7 901 355.3 901 333.2 901C311 901 289 901 266.8 901C244.7 901 222.3 901 200 901C177.7 901 155.3 901 133.2 901C111 901 89 901 66.8 901C44.7 901 22.3 901 11.2 901L0 901Z" fill="#45322e" stroke-linecap="round" stroke-linejoin="miter"></path></svg>